<?xml version="1.0" encoding="utf-8"?>
<!-- Generator: Adobe Illustrator 19.0.0, SVG Export Plug-In . SVG Version: 6.00 Build 0)  -->
<svg version="1.1" id="Layer_1" xmlns:sketch="http://www.bohemiancoding.com/sketch/ns"
	 xmlns="http://www.w3.org/2000/svg" xmlns:xlink="http://www.w3.org/1999/xlink" x="0px" y="0px" viewBox="336 132 1284 529"
	 style="enable-background:new 336 132 1284 529;" xml:space="preserve">
<style type="text/css">
	.st0{enable-background:new    ;}
</style>
<title>Artboard 1</title>
<desc>Created with Sketch.</desc>
<g id="Page-1_1_" sketch:type="MSPage">
	<g id="Artboard-1" sketch:type="MSArtboardGroup">
		<g id="Round-with-Text" transform="translate(3.000000, -27.000000)" sketch:type="MSLayerGroup">
			<g id="Page-1">
				<g id="CSH-Logo" transform="translate(0.000000, 29.000000)" sketch:type="MSShapeGroup">
					<path id="Shape" d="M756,267V162c0-16.6-13.4-30-30-30H366c-16.6,0-30,13.4-30,30v465c0,16.6,13.4,30,30,30h360
						c16.6,0,30-13.4,30-30V522h-90v30c0,8.3-6.7,15-15,15H441c-8.3,0-15-6.7-15-15V237c0-8.3,6.7-15,15-15h210c8.3,0,15,6.7,15,15
						v30H756L756,267L756,267z"/>
					<path id="Shape_1_" d="M628.5,252h-165c-4.1,0-7.5,3.4-7.5,7.5V417c0,4.1,3.4,7.5,7.5,7.5h101.2c2.1,0,3.8,1.7,3.8,3.8v45
						c0,2.1-1.7,3.8-3.8,3.8h-37.5c-2.1,0-3.8-1.7-3.8-3.8v-18.7H456v75c0,4.1,3.4,7.5,7.5,7.5h165c4.1,0,7.5-3.4,7.5-7.5V372
						c0-4.1-3.4-7.5-7.5-7.5H527.3c-2.1,0-3.8-1.7-3.8-3.8l0-45c0-2.1,1.7-3.8,3.8-3.8h37.5c2.1,0,3.8,1.7,3.8,3.8l0,18.8H636v-75
						C636,255.4,632.6,252,628.5,252L628.5,252L628.5,252z"/>
					<path id="Shape_2_" d="M756,432v60h-90V297h90v60h30V132h90v525h-90V432H756L756,432z"/>
				</g>
				<g class="st0">
					<path d="M1003.8,178.5l-5,10.6c-6.6-5.1-16.8-9.3-28.8-9.3c-28.3,0-41.4,23-41.4,49c0,24.8,11.5,48.2,42.2,48.2
						c11.7,0,21.6-4.5,28-9.6l4.5,11.4c-7.7,6.9-18.4,10.1-33.6,10.1c-36.6,0-56-26.9-56-60c0-34.6,19.8-61,55.8-61
						C984.9,167.8,995.8,172,1003.8,178.5z"/>
					<path d="M1053,288.9c-25.9,0-40.3-20-40.3-44.6c0-24.5,14.7-45.1,40.6-45.1c26.2,0,39.4,20.3,39.4,45
						C1092.7,267.8,1078.8,288.9,1053,288.9z M1053,210c-18.4,0-26.9,17-26.9,34.4c0,17.3,8.5,33.8,27.2,33.8
						c18.6,0,25.8-16.5,25.8-33.9C1079.1,226,1072.4,210,1053,210z"/>
					<path d="M1107.6,287v-64c0-7.2-0.3-19.2-0.3-21.8h11.4l1.1,12.8c7.5-10.1,18.1-14.9,29-14.9c12,0,20.2,4.3,24.2,15.8
						c7.5-11.5,17.4-15.8,29.6-15.8c19.4,0,26.4,13.4,26.4,33.4V287h-13.1v-44.8c0-19.4-0.8-31.7-15.4-31.7
						c-10.9,0-20.2,7.8-24.2,19.4V287h-13.1v-47.5c0-17.4-3-29-16-29c-13.3,0-23.5,9.1-26.4,17.9V287H1107.6z"/>
					<path d="M1246.6,201.2h12.3l0.8,11.5c6.6-8.8,15.2-13.6,26.6-13.6c25.3,0,35.8,21.1,35.8,45.9c0,23.2-13.4,43.8-35.8,43.8
						c-10.9,0-20.6-4.5-26.6-14.4v46.6l-13.1,1.8V201.2z M1284.2,277.7c17.9,0,24.5-18.1,24.5-33.6s-6.6-33.8-24.5-33.8
						c-17.9,0-24.6,15.2-24.6,33.8C1259.6,262.5,1266.3,277.7,1284.2,277.7z"/>
					<path d="M1336.6,201.2h13.1v57.3c0,15.4,9.1,19.7,21.4,19.7c12.2,0,21.1-4.5,21.1-19.7v-57.3h13.1v57.1
						c0,22.6-16.2,30.6-34.2,30.6s-34.6-8.2-34.6-30.6V201.2z"/>
					<path d="M1441.8,258.4c0,16,1.9,19.4,12.3,19.4c1.4,0,4.6-0.3,10.7-0.8l1.1,10.6c-9.8,0.8-12.2,1.1-14.9,1.1
						c-20.8,0-22.4-10.2-22.4-36.3v-41.9h-13.1l1.1-9.1h12l3.4-27.7l9.8-0.8v28.5h22.7v9.1h-22.7V258.4z"/>
					<path d="M1513.2,288.9c-24.5,0-39.4-17.4-39.4-45c0-25.6,15.4-44.2,37.8-44.8c21.3,0,34.6,16.2,34.6,41.4
						c0,1.3-0.2,4.5-0.2,5.9h-58.7c0,19.4,11.4,31.2,26.4,31.2c12.2,0,21.1-4.5,27.2-8.6l4,9.6
						C1537.8,284.8,1527,288.9,1513.2,288.9z M1487.8,237.4h45.8c0-18.2-9.1-27.5-21.9-27.5C1498.6,209.9,1489.2,220.6,1487.8,237.4
						z"/>
					<path d="M1562,287v-66.1c0-6.7-0.2-13.1-0.2-19.7h11l1,14.9c6.1-11,15-14.9,25.1-14.9h2.4l1,12h-3.2c-16,0-24,10.7-24,23.5V287
						H1562z"/>
				</g>
				<g class="st0">
					<path d="M917.4,460c10.4,5.1,23.8,9,38.7,9c16.6,0,25.4-7.4,25.4-23.2c0-9.4-3.8-15.8-18.7-19.5l-23-5.8
						c-16.2-4-26.2-12.6-26.2-28.2c0-22.7,17-32.5,42.6-32.5c14.2,0,27,3.5,35,8.5l-4,10.9c-6.2-3.4-18.6-7.4-31.2-7.4
						c-18.6,0-28.3,6.2-28.3,19.7c0,9.1,6.1,14.1,17.3,16.8l21.9,5.3c17.4,4.2,28.6,12.6,28.6,31.7c0,24.3-16.3,35.5-40.2,35.5
						c-20.3,0-34.9-5.3-41.9-9.6L917.4,460z"/>
					<path d="M1072.4,473.1c-5.6,5.3-14.7,7.8-23.2,7.8c-26.7,0-41.3-21-41.3-44.8c0.2-23.7,15.5-45,41.1-45
						c9.9,0,18.6,2.9,23.4,7.5l-3.4,9.3c-6.6-4.3-13.6-5.9-20.2-5.9c-15.7,0-27.7,14.6-27.7,34.4c0,19.7,11.5,33.8,28.6,33.8
						c7.7,0,14.6-3,19.4-6.4L1072.4,473.1z"/>
					<path d="M1101.8,377.6h-13.1v-15.4h13.1V377.6z M1101.8,479h-13.1v-85.8h13.1V479z"/>
					<path d="M1158,480.9c-24.5,0-39.4-17.4-39.4-45c0-25.6,15.4-44.2,37.8-44.8c21.3,0,34.6,16.2,34.6,41.4c0,1.3-0.2,4.5-0.2,5.9
						h-58.7c0,19.4,11.4,31.2,26.4,31.2c12.2,0,21.1-4.5,27.2-8.6l4,9.6C1182.6,476.8,1171.8,480.9,1158,480.9z M1132.6,429.4h45.8
						c0-18.2-9.1-27.5-21.9-27.5C1143.4,401.9,1134,412.6,1132.6,429.4z"/>
					<path d="M1275.9,427.6V479h-13.1v-43c0-22.2-1-33.6-16.8-33.6c-14.4,0-24.6,10.4-26.7,18.1V479h-13.1v-65l-0.3-20.8h11.4
						l1.1,12.6c6.7-9.1,18.7-14.7,30.6-14.7C1267.8,391.2,1275.9,403.6,1275.9,427.6z"/>
					<path d="M1354.5,473.1c-5.6,5.3-14.7,7.8-23.2,7.8c-26.7,0-41.3-21-41.3-44.8c0.2-23.7,15.5-45,41.1-45
						c9.9,0,18.6,2.9,23.4,7.5l-3.4,9.3c-6.6-4.3-13.6-5.9-20.2-5.9c-15.7,0-27.7,14.6-27.7,34.4c0,19.7,11.5,33.8,28.6,33.8
						c7.7,0,14.6-3,19.4-6.4L1354.5,473.1z"/>
					<path d="M1403.8,480.9c-24.5,0-39.4-17.4-39.4-45c0-25.6,15.4-44.2,37.8-44.8c21.3,0,34.6,16.2,34.6,41.4
						c0,1.3-0.2,4.5-0.2,5.9h-58.7c0,19.4,11.4,31.2,26.4,31.2c12.2,0,21.1-4.5,27.2-8.6l4,9.6
						C1428.4,476.8,1417.5,480.9,1403.8,480.9z M1378.3,429.4h45.8c0-18.2-9.1-27.5-21.9-27.5
						C1389.2,401.9,1379.8,412.6,1378.3,429.4z"/>
				</g>
				<g class="st0">
					<path d="M931.3,616.6V671h-13.8V554.2h13.8v50.6h63.8v-50.6h13.9V671h-13.9v-54.4H931.3z"/>
					<path d="M1066.8,672.9c-25.9,0-40.3-20-40.3-44.6c0-24.5,14.7-45.1,40.6-45.1c26.2,0,39.4,20.3,39.4,45
						C1106.5,651.8,1092.6,672.9,1066.8,672.9z M1066.8,594c-18.4,0-26.9,17-26.9,34.4c0,17.3,8.5,33.8,27.2,33.8
						c18.6,0,25.8-16.5,25.8-33.9C1092.9,610,1086.2,594,1066.8,594z"/>
					<path d="M1120.9,585.2h13.1v57.3c0,15.4,9.1,19.7,21.4,19.7c12.2,0,21.1-4.5,21.1-19.7v-57.3h13.1v57.1
						c0,22.6-16.2,30.6-34.2,30.6c-18.1,0-34.6-8.2-34.6-30.6V585.2z"/>
					<path d="M1264.9,648c-0.5,16.2-12,25-28.3,25c-13.1,0-24.6-4.2-29.8-8l3.4-10.1c3.2,2.1,12.6,7.2,24.3,7.2h1.3
						c9.8,0,16-4.8,16.8-13.8v-0.8c0-5.4-3.4-10.6-13-13.3l-11.4-3.2c-17.1-4.8-22.1-13.3-22.2-23.7c0-12,9.4-24,28.6-24.2
						c11,0,19.4,2.2,25.9,5.6l-3,9.4c-4.6-1.9-12.5-4.6-21.9-4.6c-9.4,0-16.5,5-16.5,13.8c0,5.3,3,9.4,12.3,11.8l11.8,3.2
						c13.9,3.7,21.6,11,21.6,25.3V648z"/>
					<path d="M1316.7,672.9c-24.5,0-39.4-17.4-39.4-45c0-25.6,15.4-44.2,37.8-44.8c21.3,0,34.6,16.2,34.6,41.4
						c0,1.3-0.2,4.5-0.2,5.9h-58.7c0,19.4,11.4,31.2,26.4,31.2c12.2,0,21.1-4.5,27.2-8.6l4,9.6
						C1341.4,668.8,1330.5,672.9,1316.7,672.9z M1291.3,621.4h45.8c0-18.2-9.1-27.5-21.9-27.5
						C1302.2,593.9,1292.7,604.6,1291.3,621.4z"/>
				</g>
			</g>
		</g>
	</g>
</g>
</svg>
